<mxfile host="Electron" agent="Mozilla/5.0 (X11; Linux x86_64) AppleWebKit/537.36 (KHTML, like Gecko) draw.io/24.7.8 Chrome/128.0.6613.36 Electron/32.0.1 Safari/537.36" version="24.7.8">
  <diagram name="Page-1" id="Wlb3ClHNn0vbrMixMZ_J">
    <mxGraphModel dx="1434" dy="870" grid="1" gridSize="10" guides="1" tooltips="1" connect="1" arrows="1" fold="1" page="1" pageScale="1" pageWidth="1169" pageHeight="827" math="0" shadow="0">
      <root>
        <mxCell id="0" />
        <mxCell id="1" parent="0" />
        <mxCell id="HbCKQyjQsGPPpmpwon6N-6" style="edgeStyle=orthogonalEdgeStyle;rounded=0;orthogonalLoop=1;jettySize=auto;html=1;entryX=0;entryY=0.5;entryDx=0;entryDy=0;" edge="1" parent="1" source="HbCKQyjQsGPPpmpwon6N-1" target="HbCKQyjQsGPPpmpwon6N-2">
          <mxGeometry relative="1" as="geometry" />
        </mxCell>
        <mxCell id="HbCKQyjQsGPPpmpwon6N-1" value="Patient input&lt;div&gt;symptoms, Images&lt;/div&gt;&lt;div&gt;Reports&lt;/div&gt;" style="rounded=0;whiteSpace=wrap;html=1;" vertex="1" parent="1">
          <mxGeometry x="190" y="110" width="120" height="60" as="geometry" />
        </mxCell>
        <mxCell id="HbCKQyjQsGPPpmpwon6N-7" style="edgeStyle=orthogonalEdgeStyle;rounded=0;orthogonalLoop=1;jettySize=auto;html=1;entryX=0;entryY=0.5;entryDx=0;entryDy=0;" edge="1" parent="1" source="HbCKQyjQsGPPpmpwon6N-2" target="HbCKQyjQsGPPpmpwon6N-3">
          <mxGeometry relative="1" as="geometry" />
        </mxCell>
        <mxCell id="HbCKQyjQsGPPpmpwon6N-2" value="Data preprocessing&lt;div&gt;(feature extraction)&lt;/div&gt;" style="rounded=0;whiteSpace=wrap;html=1;" vertex="1" parent="1">
          <mxGeometry x="410" y="110" width="120" height="60" as="geometry" />
        </mxCell>
        <mxCell id="HbCKQyjQsGPPpmpwon6N-9" style="edgeStyle=orthogonalEdgeStyle;rounded=0;orthogonalLoop=1;jettySize=auto;html=1;entryX=0.5;entryY=0;entryDx=0;entryDy=0;exitX=0.75;exitY=1;exitDx=0;exitDy=0;" edge="1" parent="1" source="HbCKQyjQsGPPpmpwon6N-3" target="HbCKQyjQsGPPpmpwon6N-4">
          <mxGeometry relative="1" as="geometry" />
        </mxCell>
        <mxCell id="HbCKQyjQsGPPpmpwon6N-3" value="Gating Layer&lt;div&gt;(Model Selection)&lt;/div&gt;" style="rounded=0;whiteSpace=wrap;html=1;" vertex="1" parent="1">
          <mxGeometry x="620" y="110" width="120" height="60" as="geometry" />
        </mxCell>
        <mxCell id="HbCKQyjQsGPPpmpwon6N-4" value="Specialized models" style="rounded=0;whiteSpace=wrap;html=1;" vertex="1" parent="1">
          <mxGeometry x="650" y="310" width="120" height="60" as="geometry" />
        </mxCell>
        <mxCell id="HbCKQyjQsGPPpmpwon6N-15" style="edgeStyle=orthogonalEdgeStyle;rounded=0;orthogonalLoop=1;jettySize=auto;html=1;entryX=0.5;entryY=0;entryDx=0;entryDy=0;" edge="1" parent="1" source="HbCKQyjQsGPPpmpwon6N-5" target="HbCKQyjQsGPPpmpwon6N-10">
          <mxGeometry relative="1" as="geometry" />
        </mxCell>
        <mxCell id="HbCKQyjQsGPPpmpwon6N-5" value="General medical model" style="rounded=0;whiteSpace=wrap;html=1;" vertex="1" parent="1">
          <mxGeometry x="450" y="310" width="120" height="60" as="geometry" />
        </mxCell>
        <mxCell id="HbCKQyjQsGPPpmpwon6N-8" style="edgeStyle=orthogonalEdgeStyle;rounded=0;orthogonalLoop=1;jettySize=auto;html=1;entryX=1;entryY=0.5;entryDx=0;entryDy=0;exitX=0;exitY=0.5;exitDx=0;exitDy=0;" edge="1" parent="1" source="HbCKQyjQsGPPpmpwon6N-4" target="HbCKQyjQsGPPpmpwon6N-5">
          <mxGeometry relative="1" as="geometry" />
        </mxCell>
        <mxCell id="HbCKQyjQsGPPpmpwon6N-16" style="edgeStyle=orthogonalEdgeStyle;rounded=0;orthogonalLoop=1;jettySize=auto;html=1;entryX=0.5;entryY=0;entryDx=0;entryDy=0;" edge="1" parent="1" source="HbCKQyjQsGPPpmpwon6N-10" target="HbCKQyjQsGPPpmpwon6N-12">
          <mxGeometry relative="1" as="geometry" />
        </mxCell>
        <mxCell id="HbCKQyjQsGPPpmpwon6N-10" value="Mixture of Experts&lt;div&gt;(weighted combination)&lt;/div&gt;" style="rounded=0;whiteSpace=wrap;html=1;" vertex="1" parent="1">
          <mxGeometry x="450" y="440" width="120" height="60" as="geometry" />
        </mxCell>
        <mxCell id="HbCKQyjQsGPPpmpwon6N-11" style="edgeStyle=orthogonalEdgeStyle;rounded=0;orthogonalLoop=1;jettySize=auto;html=1;exitX=1;exitY=0.5;exitDx=0;exitDy=0;entryX=1;entryY=0.5;entryDx=0;entryDy=0;" edge="1" parent="1" source="HbCKQyjQsGPPpmpwon6N-5" target="HbCKQyjQsGPPpmpwon6N-5">
          <mxGeometry relative="1" as="geometry" />
        </mxCell>
        <mxCell id="HbCKQyjQsGPPpmpwon6N-17" style="edgeStyle=orthogonalEdgeStyle;rounded=0;orthogonalLoop=1;jettySize=auto;html=1;exitX=1;exitY=0.5;exitDx=0;exitDy=0;entryX=0;entryY=0.5;entryDx=0;entryDy=0;" edge="1" parent="1" source="HbCKQyjQsGPPpmpwon6N-12" target="HbCKQyjQsGPPpmpwon6N-13">
          <mxGeometry relative="1" as="geometry" />
        </mxCell>
        <mxCell id="HbCKQyjQsGPPpmpwon6N-12" value="Report Generation" style="rounded=0;whiteSpace=wrap;html=1;" vertex="1" parent="1">
          <mxGeometry x="450" y="580" width="120" height="60" as="geometry" />
        </mxCell>
        <mxCell id="HbCKQyjQsGPPpmpwon6N-18" style="edgeStyle=orthogonalEdgeStyle;rounded=0;orthogonalLoop=1;jettySize=auto;html=1;entryX=0.5;entryY=1;entryDx=0;entryDy=0;" edge="1" parent="1" source="HbCKQyjQsGPPpmpwon6N-13" target="HbCKQyjQsGPPpmpwon6N-14">
          <mxGeometry relative="1" as="geometry" />
        </mxCell>
        <mxCell id="HbCKQyjQsGPPpmpwon6N-13" value="Doctor Review" style="rounded=0;whiteSpace=wrap;html=1;" vertex="1" parent="1">
          <mxGeometry x="640" y="580" width="120" height="60" as="geometry" />
        </mxCell>
        <mxCell id="HbCKQyjQsGPPpmpwon6N-19" style="edgeStyle=orthogonalEdgeStyle;rounded=0;orthogonalLoop=1;jettySize=auto;html=1;entryX=1;entryY=0.75;entryDx=0;entryDy=0;" edge="1" parent="1" source="HbCKQyjQsGPPpmpwon6N-14" target="HbCKQyjQsGPPpmpwon6N-5">
          <mxGeometry relative="1" as="geometry">
            <Array as="points">
              <mxPoint x="610" y="470" />
              <mxPoint x="610" y="355" />
            </Array>
          </mxGeometry>
        </mxCell>
        <mxCell id="HbCKQyjQsGPPpmpwon6N-14" value="RAG" style="rounded=0;whiteSpace=wrap;html=1;" vertex="1" parent="1">
          <mxGeometry x="850" y="440" width="120" height="60" as="geometry" />
        </mxCell>
      </root>
    </mxGraphModel>
  </diagram>
</mxfile>
